<svg width="40" height="40" viewBox="0 0 40 40" fill="none" xmlns="http://www.w3.org/2000/svg">
<g clip-path="url(#clip0_5850_44421)">
<path d="M22.7046 0.000366211H17.2924V40.0004H22.7046V0.000366211Z" fill="#00606F"/>
<path d="M39.9995 17.2941H-0.000488281V22.7064H39.9995V17.2941Z" fill="#00606F"/>
<path d="M23.3248 17.1556C23.773 18.1351 24.332 19.6016 24.7636 21.0792C24.8356 20.8523 24.913 20.6199 25.0016 20.3819C25.0016 20.3819 25.0016 20.3708 25.0016 20.3653C25.1842 19.8617 25.6435 18.7438 25.9867 18.041C26.8057 16.3919 27.6635 15.0139 28.5323 13.9569C28.7703 13.6691 28.9916 13.4146 29.1798 13.1987H21.0669C21.089 13.2319 21.1167 13.2651 21.1388 13.2983C21.9689 14.4771 22.5998 15.5894 23.3137 17.1445" fill="white"/>
<path d="M30.9837 18.8381C30.7402 18.8381 30.5466 18.6444 30.5466 18.4009C30.5466 18.1574 30.7402 17.9637 30.9837 17.9637C31.2272 17.9637 31.4209 18.1574 31.4209 18.4009C31.4209 18.6444 31.2272 18.8381 30.9837 18.8381ZM32.1293 17.0727C31.1664 16.796 30.3141 17.045 29.6058 17.8143C28.6373 18.8602 27.5914 21.3173 27.0933 23.0993C26.6727 24.6156 26.4237 25.2631 25.4995 26.0876C25.4608 26.1209 25.422 26.1485 25.3833 26.1817H27.5194C27.5194 26.1817 27.5526 26.1707 27.5748 26.1707H27.6135C28.1282 26.1707 29.0911 26.1707 29.9876 25.2188C30.9229 24.2282 31.1442 23.4756 31.4209 22.5237C31.5537 22.0755 31.7032 21.5663 31.9467 20.9908C32.3617 20.0113 33.0867 19.3306 33.7065 18.9653C33.3468 18.1408 32.8542 17.2885 32.1293 17.0782" fill="white"/>
<path d="M23.3248 17.1556C23.773 18.1351 24.332 19.6016 24.7636 21.0792C24.8356 20.8523 24.913 20.6199 25.0016 20.3819C25.0016 20.3819 25.0016 20.3708 25.0016 20.3653C25.1842 19.8617 25.6435 18.7438 25.9867 18.041C26.8057 16.3919 27.6635 15.0139 28.5323 13.9569C28.7703 13.6691 28.9916 13.4146 29.1798 13.1987H21.0669C21.089 13.2319 21.1167 13.2651 21.1388 13.2983C21.9689 14.4771 22.5998 15.5894 23.3137 17.1445" fill="white"/>
<path d="M30.9837 18.8381C30.7402 18.8381 30.5466 18.6444 30.5466 18.4009C30.5466 18.1574 30.7402 17.9637 30.9837 17.9637C31.2272 17.9637 31.4209 18.1574 31.4209 18.4009C31.4209 18.6444 31.2272 18.8381 30.9837 18.8381ZM32.1293 17.0727C31.1664 16.796 30.3141 17.045 29.6058 17.8143C28.6373 18.8602 27.5914 21.3173 27.0933 23.0993C26.6727 24.6156 26.4237 25.2631 25.4995 26.0876C25.4608 26.1209 25.422 26.1485 25.3833 26.1817H27.5194C27.5194 26.1817 27.5526 26.1707 27.5748 26.1707H27.6135C28.1282 26.1707 29.0911 26.1707 29.9876 25.2188C30.9229 24.2282 31.1442 23.4756 31.4209 22.5237C31.5537 22.0755 31.7032 21.5663 31.9467 20.9908C32.3617 20.0113 33.0867 19.3306 33.7065 18.9653C33.3468 18.1408 32.8542 17.2885 32.1293 17.0782" fill="white"/>
<path d="M27.6747 17.0505C27.0936 17.8972 26.4849 19.0649 26.02 20.2437C26.0089 20.2714 25.9979 20.2935 25.9923 20.3156C25.9481 20.4318 25.9038 20.5425 25.8595 20.6587C25.8595 20.6587 25.8595 20.6698 25.854 20.6753C25.7599 20.9354 25.6714 21.19 25.5939 21.4446C25.45 21.9205 25.3117 22.3854 25.1788 22.8336C25.1235 23.0328 24.9409 23.1546 24.7472 23.1546C24.7084 23.1546 24.6642 23.149 24.6199 23.138C24.6033 23.1324 24.5867 23.1214 24.5646 23.1158C24.5535 23.1103 24.5369 23.1048 24.5258 23.0992C24.4041 23.0439 24.31 22.9332 24.2768 22.7893C23.8673 20.9299 23.0925 18.8104 22.5059 17.5265C21.6979 15.7722 21.0837 14.7761 20.4085 13.8242C19.8108 12.9775 19.1246 12.2249 18.8479 11.926H6.51254C7.01614 12.5071 7.70789 13.3815 8.33324 14.4163H17.0327C17.0936 14.4163 17.1545 14.4274 17.2098 14.4551C17.2707 14.4828 18.6874 15.086 19.7666 16.0267C21.377 17.4324 22.4063 19.6073 22.9929 21.19C23.1479 21.6051 23.3083 22.081 23.4688 22.6067C23.5408 22.8447 23.4079 23.0937 23.17 23.1712C22.932 23.2431 22.683 23.1103 22.611 22.8723C22.4561 22.3632 22.3011 21.9039 22.1517 21.5054C21.6039 20.0223 20.6409 17.9913 19.1799 16.7074C18.3498 15.9825 17.2486 15.4567 16.9442 15.3184H6.21924C6.42953 15.4678 6.65089 15.6338 6.87225 15.8109C8.20596 16.9122 9.48985 18.921 10.3034 21.19C10.7184 22.3411 10.9619 23.0384 11.4157 24.3499C11.8307 25.5453 12.6221 26.154 13.7566 26.154H15.7654C15.7654 26.154 15.7876 26.154 15.7987 26.154H21.1335C23.6514 26.154 24.2547 25.9769 24.8966 25.4069C25.6326 24.7539 25.8153 24.3112 26.2192 22.8502C26.756 20.9188 27.8628 18.351 28.9365 17.1944C28.9863 17.1391 29.0471 17.0948 29.1025 17.045H27.6692L27.6747 17.0505Z" fill="white"/>
<path d="M31.4214 18.4009C31.4214 18.1629 31.2277 17.9637 30.9842 17.9637C30.7407 17.9637 30.547 18.1574 30.547 18.4009C30.547 18.6444 30.7407 18.8381 30.9842 18.8381C31.2277 18.8381 31.4214 18.6444 31.4214 18.4009ZM33.7069 18.9598C33.0871 19.3251 32.3621 20.0002 31.9471 20.9853C31.7036 21.5553 31.5542 22.0644 31.4214 22.5182C31.1391 23.47 30.9178 24.2227 29.988 25.2133C29.0915 26.1707 28.1286 26.1651 27.6139 26.1651H27.5752C27.5752 26.1651 27.542 26.1762 27.5199 26.1762H25.3837C25.4225 26.143 25.4612 26.1209 25.4999 26.0876C26.4241 25.2686 26.6676 24.6156 27.0937 23.0993C27.5918 21.3173 28.6377 18.8547 29.6062 17.8143C30.3145 17.045 31.1668 16.796 32.1297 17.0782C32.8547 17.2885 33.3472 18.1408 33.7069 18.9653M21.0782 13.21H29.1911C29.003 13.4202 28.7816 13.6748 28.5437 13.9626C27.6693 15.0196 26.8115 16.392 25.998 18.0467C25.6549 18.744 25.1956 19.8619 25.0129 20.3655C25.0129 20.3655 25.0129 20.3765 25.0129 20.3821C24.9244 20.62 24.8469 20.8525 24.775 21.0793C24.3433 19.6018 23.7844 18.1408 23.3361 17.1557C22.6222 15.6007 21.9914 14.4828 21.1613 13.3096C21.1391 13.2764 21.1114 13.2432 21.0893 13.21M34.7141 19.0152C34.4319 18.2957 33.7678 16.6078 32.3898 16.2094C31.0893 15.8331 29.905 16.1762 28.9587 17.2C27.8851 18.3621 26.7783 20.9244 26.236 22.8558C25.832 24.3168 25.6494 24.7595 24.9133 25.4125C24.2714 25.9825 23.6682 26.1596 21.1502 26.1596H15.8154C15.8154 26.1596 15.7932 26.1596 15.7822 26.1596H13.7733C12.6333 26.1596 11.8475 25.5508 11.4269 24.3555C10.9731 23.0439 10.7241 22.3466 10.3145 21.1956C9.50104 18.9266 8.21714 16.9122 6.88344 15.8109C6.66208 15.6283 6.44625 15.4623 6.23043 15.3184H16.9499C17.2542 15.4568 18.3555 15.9825 19.1856 16.7075C20.6521 17.9858 21.6095 20.0223 22.1629 21.5055C22.3123 21.9039 22.4618 22.3632 22.6222 22.8724C22.6942 23.1103 22.9487 23.2432 23.1867 23.1712C23.4247 23.0993 23.5575 22.8447 23.4855 22.6067C23.3251 22.081 23.1646 21.6051 23.0152 21.19C22.4285 19.6128 21.3937 17.4324 19.7888 16.0268C18.7097 15.086 17.293 14.4772 17.2321 14.4496C17.1767 14.4274 17.1159 14.4164 17.055 14.4164H8.3555C7.73568 13.376 7.0384 12.5016 6.5348 11.9261H18.8702C19.1469 12.2249 19.8331 12.972 20.4308 13.8242C21.1059 14.7761 21.7202 15.7722 22.5282 17.5265C23.1148 18.8049 23.8895 20.9299 24.299 22.7894C24.3323 22.9332 24.4263 23.0439 24.5481 23.0993C24.5591 23.1048 24.5758 23.1103 24.5868 23.1159C24.6034 23.1214 24.62 23.1325 24.6366 23.138C24.6809 23.1491 24.7196 23.1546 24.7639 23.1546C24.9576 23.1546 25.1402 23.0273 25.1956 22.8336C25.3284 22.3854 25.4667 21.9205 25.6106 21.4446C25.6881 21.19 25.7766 20.9355 25.8707 20.6754C25.8707 20.6754 25.8707 20.6643 25.8762 20.6588C25.9205 20.5425 25.9593 20.4319 26.0091 20.3156C26.0201 20.2935 26.0257 20.2658 26.0367 20.2437C26.7064 18.5503 27.6693 16.8679 28.4164 16.1541C29.2354 15.3682 30.1762 15.0639 30.6245 14.9587C30.7849 14.92 30.8347 14.9089 30.8956 14.8923C30.9565 14.8757 31.034 14.8536 31.1059 14.8038C31.2277 14.7207 31.2885 14.5713 31.2775 14.4164C31.2609 14.1784 31.0727 14.0124 30.8181 14.0124H29.6892C30.1983 13.4313 30.5359 13.1048 30.558 13.0771C30.7019 12.9332 30.7296 12.7562 30.6632 12.5846C30.5968 12.413 30.4197 12.3024 30.2205 12.3024H20.392C20.071 11.9095 19.7777 11.5885 19.5951 11.3893C19.4678 11.2509 19.4402 11.2232 19.4291 11.2122C19.3074 11.0849 19.1579 11.0295 18.9642 11.0295H5.50547C5.30071 11.0295 5.14022 11.1402 5.06828 11.3118C5.00187 11.4833 5.04061 11.6604 5.16789 11.8043C5.17896 11.8154 6.2747 12.8945 7.27636 14.4274H4.61449C4.40419 14.4274 4.22157 14.5713 4.1773 14.7761C4.12749 14.9808 4.22711 15.169 4.41526 15.2797C4.42633 15.2852 5.39479 15.7722 6.29683 16.5138C7.51432 17.5154 8.69307 19.3804 9.45123 21.5055C9.86075 22.6565 10.1098 23.3483 10.5636 24.6599C11.1004 26.2149 12.2349 27.0672 13.7567 27.0672H16.6565C16.6565 27.0672 16.6787 27.0672 16.6898 27.0672H17.3926H27.5697H27.6803C28.3112 27.0672 29.5176 27.0229 30.6355 25.8275C31.7147 24.682 31.9914 23.7523 32.2791 22.7728C32.4119 22.3245 32.5448 21.8596 32.7717 21.3394C33.1756 20.3821 33.9283 19.8065 34.4485 19.5962C34.6809 19.5021 34.7916 19.242 34.703 19.0152" fill="#00606F"/>
</g>
<defs>
<clipPath id="clip0_5850_44421">
<rect width="40" height="40" fill="white"/>
</clipPath>
</defs>
</svg>
